<svg width="244" height="169" viewBox="0 0 244 169" fill="none" xmlns="http://www.w3.org/2000/svg">
<path d="M185.971 37.5353C185.971 37.5353 184.659 35.293 182.561 32.2491C182.561 32.2491 175.887 36.829 175.948 36.5711C176.009 36.3132 185.971 37.5353 185.971 37.5353Z" fill="#231F20"/>
<path d="M185.971 37.8156H185.928C182.421 37.3895 176.693 36.7505 176.07 36.829C175.894 36.8906 175.845 36.829 175.784 36.829C175.731 36.7975 175.691 36.7524 175.667 36.6994C175.643 36.6464 175.637 36.588 175.65 36.5319C175.65 36.4478 175.68 36.3693 175.875 36.3301C176.272 36.1843 180.072 33.6225 182.378 32.0417C182.411 32.0184 182.45 32.0018 182.491 31.9931C182.532 31.9844 182.574 31.9838 182.616 31.9912C182.657 31.9974 182.696 32.0116 182.731 32.0329C182.766 32.0542 182.795 32.082 182.817 32.1146C184.897 35.1529 186.227 37.3951 186.239 37.4176C186.269 37.4613 186.285 37.5118 186.285 37.5633C186.285 37.6149 186.269 37.6654 186.239 37.7091C186.208 37.7461 186.167 37.7752 186.12 37.7938C186.073 37.8124 186.022 37.8199 185.971 37.8156V37.8156ZM177.028 36.2908C178.285 36.3581 180.688 36.6047 185.41 37.1709C184.934 36.3861 183.891 34.7156 182.475 32.6471C179.529 34.6764 177.925 35.7302 177.028 36.2908Z" fill="#231F20"/>
<path d="M97.6061 130.007L94.2755 124.906L98.881 121.077L97.6061 130.007Z" fill="#231F20"/>
<path d="M97.6 130.288C97.5465 130.288 97.4938 130.276 97.4475 130.251C97.4013 130.226 97.3633 130.191 97.3377 130.147L94.0071 125.052C93.9713 124.996 93.9573 124.931 93.9672 124.866C93.9772 124.802 94.0106 124.743 94.062 124.699L98.6736 120.87C98.7187 120.831 98.7761 120.806 98.8374 120.799C98.8988 120.792 98.961 120.803 99.0152 120.831C99.0708 120.857 99.1164 120.899 99.1458 120.95C99.1752 121.001 99.1871 121.059 99.1799 121.117L97.8989 130.041C97.8906 130.099 97.8634 130.152 97.8209 130.196C97.7784 130.239 97.7226 130.269 97.661 130.282L97.6 130.288ZM94.6598 124.956L97.4109 129.172L98.4662 121.795L94.6598 124.956Z" fill="#231F20"/>
<path d="M99.7655 131.078L153.348 138.096C154.447 138.228 155.56 137.997 156.49 137.443C157.42 136.89 158.105 136.05 158.423 135.075L186.16 39.7215C186.306 39.2757 186.338 38.8048 186.253 38.3459C186.168 37.8869 185.968 37.4522 185.67 37.0759C185.371 36.6997 184.982 36.392 184.533 36.177C184.083 35.962 183.586 35.8455 183.079 35.8367L128.429 31.8062C127.346 31.7541 126.276 32.0389 125.39 32.6145C124.505 33.1902 123.856 34.0232 123.549 34.9791L96.99 127.143C96.8496 127.57 96.8122 128.02 96.8804 128.462C96.9486 128.904 97.1208 129.327 97.385 129.702C97.6491 130.076 97.999 130.393 98.4101 130.631C98.8212 130.869 99.2838 131.021 99.7655 131.078Z" fill="#231F20"/>
<path d="M153.958 138.416C153.74 138.417 153.522 138.404 153.305 138.377L99.7228 131.353C99.2018 131.294 98.7006 131.133 98.2533 130.88C97.806 130.628 97.423 130.29 97.1303 129.89C96.8402 129.48 96.6487 129.018 96.5688 128.534C96.4888 128.051 96.5222 127.557 96.6668 127.087L123.269 34.8894C123.601 33.8775 124.292 32.9968 125.231 32.3874C126.171 31.7779 127.305 31.4747 128.454 31.526L183.104 35.5733C183.665 35.5994 184.214 35.7402 184.708 35.9855C185.203 36.2309 185.633 36.5745 185.965 36.9915C186.266 37.3966 186.466 37.8581 186.551 38.3427C186.635 38.8273 186.602 39.3231 186.453 39.7944L158.722 135.142C158.415 136.085 157.786 136.912 156.928 137.502C156.07 138.091 155.029 138.412 153.958 138.416V138.416ZM128.1 32.0585C127.136 32.073 126.203 32.3694 125.435 32.9046C124.667 33.4399 124.105 34.1862 123.83 35.0351L97.2585 127.216C97.1341 127.611 97.1035 128.026 97.1687 128.433C97.234 128.84 97.3935 129.23 97.6367 129.576C97.8814 129.911 98.2022 130.194 98.577 130.405C98.9518 130.616 99.3718 130.75 99.8082 130.798V130.798L153.391 137.822C154.414 137.944 155.451 137.73 156.318 137.217C157.186 136.704 157.828 135.925 158.13 135.019L185.867 39.6542C185.989 39.2571 186.014 38.8402 185.94 38.4332C185.866 38.0262 185.695 37.6392 185.44 37.2998C185.155 36.9478 184.788 36.6588 184.366 36.4541C183.944 36.2494 183.477 36.1342 183 36.117L128.405 32.0697C128.304 32.0605 128.202 32.0567 128.1 32.0585V32.0585Z" fill="#231F20"/>
<path d="M96.2763 125.814L149.859 132.833C150.957 132.964 152.071 132.733 153.001 132.179C153.931 131.626 154.616 130.786 154.934 129.811L182.671 34.4577C182.816 34.0142 182.848 33.5457 182.765 33.0888C182.682 32.6319 182.485 32.1988 182.19 31.8231C181.895 31.4474 181.51 31.1391 181.064 30.9223C180.618 30.7056 180.125 30.586 179.621 30.573L124.971 26.5257C123.888 26.4736 122.817 26.7583 121.932 27.3339C121.046 27.9096 120.398 28.7426 120.091 29.6985L93.4947 121.879C93.3532 122.307 93.3151 122.758 93.3832 123.2C93.4513 123.643 93.6239 124.067 93.8889 124.441C94.1539 124.816 94.5049 125.133 94.9173 125.371C95.3297 125.608 95.7935 125.759 96.2763 125.814Z" fill="white"/>
<path d="M150.469 133.152C150.25 133.153 150.032 133.14 149.816 133.113L96.2336 126.089C95.7126 126.03 95.2114 125.869 94.7641 125.617C94.3168 125.364 93.9338 125.026 93.6411 124.626C93.352 124.215 93.1612 123.753 93.0813 123.27C93.0014 122.787 93.0342 122.294 93.1775 121.823L119.78 29.6256C120.11 28.6127 120.8 27.7309 121.74 27.1211C122.68 26.5114 123.815 26.2089 124.965 26.2622L179.615 30.3151C180.176 30.34 180.725 30.4804 181.22 30.7258C181.715 30.9712 182.144 31.3155 182.475 31.7334C182.778 32.138 182.979 32.5994 183.063 33.0843C183.148 33.5691 183.114 34.0651 182.963 34.5362L155.233 129.906C154.92 130.844 154.289 131.665 153.432 132.249C152.574 132.833 151.536 133.15 150.469 133.152V133.152ZM124.611 26.7947C123.647 26.8101 122.714 27.1068 121.947 27.642C121.179 28.1771 120.617 28.9229 120.341 29.7714L93.7448 121.952C93.6207 122.348 93.5903 122.764 93.6555 123.172C93.7207 123.58 93.8801 123.971 94.123 124.317C94.3684 124.652 94.6895 124.934 95.0643 125.144C95.4391 125.354 95.8587 125.487 96.2946 125.534L149.877 132.558C150.9 132.679 151.936 132.464 152.804 131.952C153.671 131.439 154.313 130.661 154.617 129.755L182.39 34.3905C182.515 33.995 182.544 33.5789 182.475 33.172C182.405 32.7651 182.239 32.3772 181.987 32.0361C181.706 31.6876 181.344 31.4007 180.927 31.1962C180.51 30.9917 180.05 30.8746 179.578 30.8533L124.928 26.806L124.611 26.7947Z" fill="#231F20"/>
<path d="M177.376 40.7361L121.427 36.2796L99.9546 110.656L155.086 117.4L177.376 40.7361Z" fill="#E6E7E8"/>
<path d="M155.086 117.484L99.9546 110.757C99.9411 110.755 99.9281 110.751 99.9166 110.744C99.905 110.737 99.8952 110.728 99.8877 110.717C99.8802 110.707 99.8753 110.695 99.8731 110.682C99.871 110.67 99.8718 110.657 99.8753 110.645L121.347 36.2684C121.352 36.2481 121.364 36.23 121.382 36.2176C121.4 36.2052 121.423 36.1994 121.445 36.2011L177.394 40.6577C177.409 40.6583 177.423 40.6622 177.436 40.669C177.449 40.6759 177.459 40.6854 177.467 40.6969C177.475 40.7078 177.479 40.7204 177.479 40.7334C177.479 40.7463 177.475 40.7589 177.467 40.7698L155.178 117.422C155.174 117.441 155.162 117.458 155.145 117.469C155.128 117.481 155.107 117.486 155.086 117.484V117.484ZM100.077 110.583L155.013 117.31L177.254 40.8146L121.5 36.3749L100.077 110.583Z" fill="#D1D3D4"/>
<path d="M118.425 125.265L128.881 126.616C129.545 126.69 130.215 126.545 130.774 126.207C131.332 125.87 131.742 125.361 131.931 124.771L132.974 121.184C133.061 120.91 133.081 120.622 133.032 120.341C132.983 120.059 132.867 119.791 132.692 119.556C132.517 119.32 132.287 119.124 132.02 118.98C131.752 118.836 131.453 118.748 131.144 118.723L120.67 117.417C120.012 117.349 119.349 117.497 118.798 117.834C118.246 118.171 117.842 118.677 117.657 119.261L116.626 122.815C116.539 123.086 116.519 123.371 116.566 123.65C116.613 123.929 116.726 124.195 116.898 124.429C117.07 124.663 117.296 124.86 117.56 125.004C117.824 125.148 118.12 125.237 118.425 125.265V125.265Z" fill="white"/>
<path d="M129.235 126.918C129.103 126.927 128.97 126.927 128.838 126.918L118.383 125.567C118.036 125.532 117.701 125.428 117.403 125.261C117.105 125.094 116.85 124.869 116.657 124.601C116.464 124.334 116.337 124.031 116.285 123.714C116.233 123.396 116.258 123.072 116.358 122.765L117.382 119.211C117.59 118.561 118.041 118 118.654 117.626C119.268 117.252 120.006 117.088 120.737 117.165L131.211 118.465C131.561 118.504 131.899 118.611 132.201 118.78C132.502 118.948 132.762 119.173 132.962 119.44C133.153 119.709 133.279 120.012 133.331 120.329C133.384 120.647 133.362 120.97 133.267 121.279L132.23 124.861C132.034 125.452 131.638 125.971 131.099 126.341C130.56 126.711 129.907 126.913 129.235 126.918ZM120.353 117.675C119.812 117.682 119.289 117.85 118.86 118.153C118.432 118.456 118.121 118.878 117.974 119.356L116.943 122.91C116.872 123.141 116.856 123.383 116.895 123.619C116.933 123.856 117.027 124.083 117.169 124.284C117.315 124.484 117.507 124.653 117.731 124.778C117.956 124.903 118.207 124.981 118.468 125.007V125.007L128.924 126.358C129.514 126.425 130.111 126.298 130.608 125.998C131.105 125.698 131.47 125.245 131.638 124.721L132.675 121.133C132.748 120.902 132.766 120.66 132.728 120.422C132.69 120.184 132.597 119.956 132.455 119.754C132.305 119.551 132.108 119.38 131.879 119.254C131.649 119.128 131.392 119.05 131.126 119.026L120.652 117.719C120.553 117.699 120.454 117.684 120.353 117.675V117.675Z" fill="#E6E7E8"/>
<path d="M160.827 34.3569L144.845 33.1292C144.805 33.1264 144.766 33.1163 144.73 33.0994C144.695 33.0826 144.663 33.0594 144.638 33.0312C144.612 33.0029 144.593 32.9703 144.581 32.9351C144.57 32.9 144.566 32.863 144.57 32.8265C144.578 32.7531 144.617 32.6854 144.678 32.6382C144.74 32.591 144.819 32.568 144.899 32.5742L160.881 33.8019C160.962 33.8019 161.04 33.8314 161.097 33.884C161.154 33.9365 161.186 34.0078 161.186 34.0822C161.186 34.1565 161.154 34.2278 161.097 34.2804C161.04 34.3329 160.962 34.3625 160.881 34.3625L160.827 34.3569Z" fill="#E6E7E8"/>
<path d="M142.624 32.961H142.594L140.477 32.7985C140.437 32.7956 140.398 32.7855 140.362 32.7688C140.326 32.752 140.294 32.7289 140.268 32.7008C140.242 32.6726 140.222 32.64 140.21 32.6048C140.198 32.5697 140.193 32.5326 140.196 32.4958C140.206 32.4224 140.245 32.355 140.306 32.3072C140.367 32.2593 140.446 32.2346 140.526 32.2379L142.649 32.4005C142.728 32.4076 142.802 32.4433 142.853 32.5C142.905 32.5567 142.93 32.6297 142.923 32.7032C142.918 32.7731 142.885 32.8387 142.829 32.8866C142.774 32.9345 142.7 32.9612 142.624 32.961V32.961Z" fill="#E6E7E8"/>
<path d="M136.805 105.353C136.755 105.353 136.706 105.342 136.663 105.321C136.619 105.299 136.582 105.268 136.555 105.23L121.305 85.1166C121.279 85.0866 121.261 85.0521 121.25 85.0153C121.24 84.9785 121.238 84.9401 121.244 84.9025C121.251 84.8649 121.265 84.8289 121.287 84.7966C121.309 84.7643 121.338 84.7365 121.372 84.7148C121.406 84.6931 121.444 84.6779 121.485 84.6703C121.525 84.6627 121.567 84.6627 121.608 84.6704C121.648 84.6781 121.686 84.6933 121.72 84.7151C121.754 84.7369 121.783 84.7648 121.805 84.7971L137.055 104.91C137.1 104.972 137.117 105.048 137.102 105.121C137.087 105.195 137.042 105.26 136.976 105.303C136.926 105.336 136.866 105.354 136.805 105.353V105.353Z" fill="white"/>
<path d="M128.442 96.4065L108.824 94.8313C108.784 94.8285 108.745 94.8184 108.709 94.8017C108.673 94.7849 108.641 94.7618 108.615 94.7336C108.589 94.7055 108.569 94.6729 108.557 94.6377C108.545 94.6025 108.54 94.5655 108.543 94.5286C108.551 94.4548 108.59 94.3866 108.651 94.3384C108.713 94.2903 108.792 94.2661 108.873 94.2708L128.497 95.846C128.576 95.8544 128.648 95.8906 128.7 95.9469C128.751 96.0033 128.776 96.0755 128.771 96.1487C128.768 96.1855 128.757 96.2215 128.739 96.2544C128.72 96.2873 128.695 96.3166 128.665 96.3406C128.634 96.3646 128.599 96.3827 128.56 96.394C128.522 96.4054 128.482 96.4096 128.442 96.4065Z" fill="#231F20"/>
<path d="M123.354 99.3776H123.324L107.525 98.0715C107.485 98.0686 107.446 98.0585 107.41 98.0418C107.374 98.025 107.342 98.0019 107.316 97.9737C107.29 97.9456 107.27 97.913 107.258 97.8778C107.245 97.8426 107.241 97.8056 107.244 97.7687C107.248 97.7319 107.26 97.696 107.279 97.6634C107.298 97.6307 107.323 97.6018 107.355 97.5783C107.386 97.5549 107.422 97.5373 107.46 97.5267C107.499 97.5161 107.54 97.5126 107.58 97.5165L123.379 98.8226C123.419 98.8255 123.458 98.8355 123.494 98.8523C123.529 98.8691 123.561 98.8922 123.587 98.9203C123.614 98.9485 123.633 98.9811 123.646 99.0162C123.658 99.0514 123.663 99.0885 123.659 99.1253C123.65 99.1942 123.614 99.2578 123.558 99.3042C123.502 99.3506 123.43 99.3767 123.354 99.3776V99.3776Z" fill="#231F20"/>
<path d="M166.384 65.5527L146.76 63.9775C146.679 63.9708 146.604 63.9348 146.552 63.8775C146.5 63.8202 146.475 63.7463 146.482 63.672C146.49 63.5976 146.529 63.529 146.591 63.4811C146.653 63.4333 146.734 63.4102 146.815 63.4169L166.432 64.9921C166.513 64.9992 166.587 65.0348 166.639 65.0913C166.692 65.1478 166.718 65.2207 166.713 65.2948C166.71 65.3317 166.699 65.3676 166.681 65.4005C166.662 65.4335 166.637 65.4627 166.607 65.4867C166.576 65.5107 166.541 65.5288 166.502 65.5402C166.464 65.5515 166.424 65.5557 166.384 65.5527Z" fill="#231F20"/>
<path d="M161.296 68.5237H161.266L145.461 67.2176C145.381 67.2105 145.307 67.1747 145.256 67.118C145.204 67.0614 145.179 66.9884 145.186 66.9149C145.189 66.8782 145.2 66.8425 145.219 66.8099C145.237 66.7772 145.262 66.7483 145.293 66.7248C145.324 66.7012 145.359 66.6836 145.397 66.6729C145.436 66.6623 145.476 66.6587 145.516 66.6626L161.321 67.9687C161.361 67.9715 161.399 67.9817 161.435 67.9985C161.47 68.0153 161.502 68.0385 161.528 68.0668C161.553 68.095 161.572 68.1277 161.584 68.1628C161.596 68.198 161.599 68.2349 161.595 68.2714C161.588 68.3399 161.553 68.4034 161.498 68.4499C161.443 68.4964 161.371 68.5227 161.296 68.5237V68.5237Z" fill="#231F20"/>
<path d="M121.86 53.8591L139.965 54.941C140.213 54.9542 140.455 55.0168 140.674 55.1246C140.893 55.2323 141.084 55.3826 141.234 55.565C141.384 55.7474 141.489 55.9575 141.541 56.1808C141.594 56.4041 141.593 56.6353 141.538 56.8582L138.647 66.9485C138.53 67.4396 138.224 67.8756 137.787 68.1771C137.349 68.4786 136.808 68.6255 136.262 68.591L118.334 67.4698C118.085 67.4531 117.844 67.3859 117.627 67.2733C117.41 67.1606 117.222 67.0052 117.078 66.8182C116.934 66.6313 116.837 66.4173 116.794 66.1917C116.75 65.9661 116.762 65.7345 116.827 65.5134L119.517 55.4231C119.648 54.9525 119.954 54.5388 120.382 54.2532C120.809 53.9677 121.332 53.8283 121.86 53.8591V53.8591Z" fill="white"/>
<path d="M136.451 68.8656H136.231L118.309 67.7445C118.023 67.7261 117.743 67.6503 117.492 67.5225C117.24 67.3947 117.021 67.218 116.852 67.0045C116.676 66.7817 116.554 66.5266 116.495 66.2568C116.436 65.9869 116.441 65.7085 116.51 65.4406L119.2 55.3503C119.348 54.813 119.695 54.34 120.182 54.0126C120.668 53.6851 121.264 53.5238 121.866 53.5564L139.964 54.6439C140.253 54.6619 140.535 54.737 140.789 54.8639C141.043 54.9909 141.265 55.1668 141.439 55.3797C141.612 55.5925 141.734 55.8373 141.796 56.0973C141.857 56.3573 141.857 56.6264 141.794 56.8862L138.897 66.9765C138.778 67.4977 138.473 67.9672 138.029 68.3097C137.586 68.6523 137.03 68.848 136.451 68.8656V68.8656ZM121.689 54.1282C121.255 54.1368 120.837 54.2758 120.498 54.5239C120.158 54.7719 119.917 55.1154 119.81 55.5016L117.126 65.5919C117.07 65.7821 117.061 65.9813 117.099 66.1751C117.137 66.3689 117.221 66.5527 117.346 66.7131C117.464 66.8608 117.616 66.9833 117.791 67.0723C117.966 67.1613 118.159 67.2147 118.358 67.2288L136.286 68.3499C136.758 68.3814 137.227 68.2552 137.605 67.9947C137.984 67.7341 138.248 67.3566 138.348 66.9317L141.239 56.8414C141.282 56.6616 141.282 56.4757 141.24 56.2959C141.198 56.1161 141.114 55.9466 140.995 55.7987C140.871 55.6473 140.712 55.5223 140.53 55.4324C140.347 55.3424 140.146 55.2896 139.94 55.2774L121.841 54.1899H121.689V54.1282Z" fill="#231F20"/>
<path d="M127.649 65.9675C127.929 65.7713 128.198 65.5751 128.472 65.4069C129.241 64.88 130.015 64.3643 130.784 63.8429C131.296 63.501 131.803 63.1534 132.279 62.7666C132.706 62.4318 133.073 62.0363 133.364 61.595C133.547 61.2978 133.69 60.9817 133.791 60.6533C133.878 60.3685 133.942 60.078 133.98 59.7844C134.058 59.3169 133.959 58.839 133.699 58.4308C133.439 58.0226 133.035 57.7089 132.553 57.5421C132.038 57.3687 131.48 57.3292 130.942 57.4281C130.404 57.527 129.906 57.7604 129.503 58.1027C129.276 58.2668 129.072 58.4549 128.893 58.6632L128.856 58.7025V58.6464C128.631 58.1914 128.258 57.8115 127.789 57.5589C127.36 57.3331 126.868 57.2279 126.374 57.2562C125.756 57.2846 125.161 57.4823 124.666 57.824C124.172 58.1657 123.8 58.6357 123.598 59.1734C123.501 59.4552 123.441 59.747 123.421 60.0422C123.379 60.3512 123.379 60.6639 123.421 60.9728C123.49 61.4304 123.672 61.8675 123.952 62.2509C124.239 62.6411 124.564 63.0069 124.922 63.344C125.453 63.8597 125.996 64.3643 126.532 64.8856C126.892 65.2388 127.246 65.6031 127.606 65.9675H127.649Z" fill="#D1D3D4"/>
<path d="M116.254 77.05L129.985 78.4346C130.173 78.4529 130.354 78.5084 130.517 78.5975C130.679 78.6865 130.818 78.8069 130.925 78.9503C131.032 79.0937 131.103 79.2567 131.135 79.428C131.166 79.5993 131.157 79.7749 131.107 79.9425L128.539 87.5159C128.433 87.8848 128.186 88.2063 127.844 88.4215C127.501 88.6366 127.085 88.7311 126.673 88.6875L113.076 87.3029C112.887 87.2823 112.706 87.2236 112.545 87.131C112.384 87.0385 112.247 86.9144 112.145 86.7676C112.042 86.6208 111.976 86.4549 111.951 86.2819C111.927 86.1089 111.944 85.933 112.002 85.7669L114.412 78.188C114.526 77.8307 114.773 77.5214 115.109 77.3136C115.446 77.1058 115.851 77.0126 116.254 77.05Z" fill="white"/>
<path d="M126.88 88.9846C126.797 88.9901 126.713 88.9901 126.63 88.9846L113.039 87.5888C112.811 87.5645 112.591 87.4947 112.395 87.3844C112.199 87.274 112.032 87.1257 111.904 86.9497C111.775 86.768 111.69 86.5624 111.657 86.3474C111.623 86.1324 111.641 85.9132 111.709 85.7052L114.149 78.1207C114.288 77.7021 114.58 77.3405 114.976 77.0973C115.372 76.8541 115.847 76.7443 116.321 76.7865L130.046 78.1712C130.278 78.1952 130.503 78.2646 130.704 78.3748C130.905 78.485 131.078 78.6335 131.211 78.8102C131.341 78.9864 131.428 79.1861 131.467 79.396C131.506 79.6058 131.496 79.8208 131.437 80.0266L128.862 87.6168C128.74 88.0124 128.48 88.3604 128.122 88.6073C127.764 88.8543 127.328 88.9868 126.88 88.9846ZM116.052 77.3191C115.749 77.3238 115.455 77.417 115.212 77.5852C114.97 77.7535 114.792 77.9881 114.704 78.2552L112.295 85.8398C112.252 85.9706 112.24 86.1084 112.26 86.2438C112.28 86.3792 112.331 86.509 112.411 86.6246C112.491 86.7319 112.595 86.8223 112.716 86.89C112.837 86.9576 112.972 87.0009 113.112 87.017L126.703 88.424C127.043 88.4603 127.387 88.3828 127.67 88.2058C127.953 88.0288 128.158 87.764 128.246 87.4598L130.814 79.8697C130.852 79.7435 130.858 79.6114 130.834 79.4826C130.81 79.3539 130.755 79.2315 130.674 79.1241C130.591 79.0127 130.483 78.9193 130.356 78.8506C130.23 78.7818 130.088 78.7393 129.942 78.7261L116.223 77.3415C116.167 77.328 116.11 77.3205 116.052 77.3191V77.3191Z" fill="#231F20"/>
<path d="M144.186 72.1674L163.206 73.9388C163.395 73.9412 163.581 73.9824 163.75 74.0593C163.919 74.1362 164.068 74.2469 164.185 74.3834C164.302 74.5198 164.384 74.6786 164.426 74.848C164.467 75.0175 164.467 75.1933 164.426 75.3627L161.278 86.1257C161.14 86.4949 160.867 86.8087 160.506 87.0132C160.144 87.2178 159.716 87.3004 159.295 87.2468L140.288 85.0045C140.106 84.9961 139.928 84.9503 139.768 84.8706C139.608 84.7908 139.469 84.6791 139.362 84.5436C139.255 84.4081 139.182 84.2523 139.149 84.0876C139.116 83.9229 139.124 83.7535 139.172 83.5919L142.295 73.2661C142.426 72.912 142.685 72.6098 143.029 72.4099C143.373 72.21 143.781 72.1244 144.186 72.1674V72.1674Z" fill="white"/>
<path d="M159.552 87.5103C159.46 87.5158 159.369 87.5158 159.277 87.5103L140.276 85.268C140.033 85.2504 139.798 85.1835 139.587 85.072C139.376 84.9605 139.194 84.8072 139.056 84.6233C138.937 84.4606 138.858 84.2756 138.827 84.0817C138.795 83.8878 138.811 83.6898 138.873 83.5022L141.996 73.1765C142.144 72.7635 142.443 72.4103 142.842 72.1765C143.241 71.9426 143.716 71.8424 144.186 71.8927L163.206 73.6585C163.462 73.6752 163.712 73.743 163.937 73.8573C164.163 73.9715 164.359 74.1294 164.511 74.32C164.633 74.4816 164.714 74.6659 164.749 74.8598C164.783 75.0537 164.771 75.2522 164.712 75.4412L161.595 86.1817C161.455 86.5755 161.181 86.9174 160.813 87.1567C160.445 87.396 160.002 87.5199 159.552 87.5103V87.5103ZM144.015 72.4365C143.71 72.4322 143.411 72.5151 143.16 72.6738C142.908 72.8325 142.717 73.0591 142.612 73.3222L139.489 83.6479C139.455 83.7578 139.447 83.873 139.465 83.986C139.482 84.099 139.526 84.2073 139.592 84.3038C139.68 84.417 139.794 84.5113 139.926 84.58C140.058 84.6487 140.204 84.6903 140.355 84.7018L159.356 86.9441C159.702 86.9949 160.055 86.9338 160.357 86.7711C160.659 86.6085 160.889 86.3546 161.01 86.0528L164.151 75.2898C164.186 75.1804 164.194 75.0651 164.174 74.9525C164.154 74.8399 164.107 74.7329 164.035 74.6395C163.934 74.5157 163.805 74.4139 163.656 74.3412C163.507 74.2686 163.343 74.2269 163.175 74.2191L144.155 72.4477H144.015V72.4365Z" fill="#231F20"/>
<path d="M154.013 84.0459L156.27 84.3038L157.862 78.8943L155.605 78.6644L154.013 84.0459Z" fill="#D1D3D4"/>
<path d="M156.27 84.3935L154.013 84.1412C153.999 84.1393 153.986 84.1348 153.975 84.1279C153.963 84.1211 153.953 84.1121 153.946 84.1015C153.938 84.0909 153.933 84.079 153.931 84.0665C153.929 84.0541 153.93 84.0413 153.933 84.0291L155.526 78.6476C155.53 78.6263 155.543 78.6073 155.563 78.5948C155.582 78.5823 155.606 78.5771 155.629 78.5804L157.886 78.8158C157.9 78.8173 157.913 78.8216 157.925 78.8284C157.936 78.8352 157.946 78.8443 157.953 78.855C157.963 78.8766 157.963 78.9008 157.953 78.9223L156.361 84.3318C156.355 84.3496 156.343 84.3651 156.326 84.3761C156.31 84.3872 156.29 84.3933 156.27 84.3935ZM154.135 83.9731L156.197 84.2085L157.74 78.9728L155.678 78.7598L154.135 83.9731Z" fill="#D1D3D4"/>
<path d="M154.623 79.0232C154.623 79.0232 152.793 78.4066 152.305 77.3415C151.817 76.2764 152.14 74.5779 151.866 74.4602C151.61 74.3909 151.338 74.3957 151.086 74.474C150.834 74.5523 150.614 74.7001 150.456 74.8974C150.017 75.4131 149.761 76.9939 150.127 78.0758C150.127 78.0758 147.687 77.8012 146.589 77.6891C145.491 77.5769 145.034 78.4234 145.564 78.8438C145.564 78.8438 144.668 78.8438 144.777 79.5838C144.887 80.3237 145.192 80.3798 145.674 80.4359C145.674 80.4359 145.064 80.4975 145.064 81.0413C145.064 81.585 145.808 81.798 145.808 81.798C145.711 81.819 145.62 81.8599 145.543 81.9175C145.465 81.9752 145.402 82.0482 145.359 82.1312C145.317 82.2141 145.295 82.3048 145.295 82.3966C145.296 82.4884 145.319 82.5789 145.363 82.6613C145.692 83.3004 146.864 83.3733 149.633 83.5302C152.402 83.6872 153.36 83.2275 153.36 83.2275L154.623 79.0232Z" fill="#D1D3D4"/>
<path d="M150.768 83.676C150.432 83.676 150.06 83.676 149.639 83.6423C146.888 83.4854 145.631 83.4125 145.272 82.723C145.222 82.6374 145.193 82.5431 145.187 82.4464C145.181 82.3497 145.197 82.2529 145.235 82.1624C145.309 82.0223 145.428 81.9067 145.577 81.8317C145.412 81.7659 145.268 81.6612 145.161 81.5284C145.054 81.3956 144.987 81.2392 144.967 81.0749C144.959 80.9626 144.986 80.8506 145.045 80.7516C145.103 80.6526 145.19 80.5704 145.296 80.5143C144.967 80.4247 144.759 80.2341 144.686 79.6455C144.667 79.547 144.671 79.4459 144.698 79.3491C144.725 79.2523 144.775 79.1622 144.845 79.0849C144.984 78.9464 145.172 78.8571 145.375 78.8326C145.306 78.7411 145.264 78.6345 145.253 78.5234C145.242 78.4122 145.263 78.3005 145.314 78.1992C145.434 77.9889 145.625 77.8203 145.858 77.7191C146.092 77.6179 146.355 77.5896 146.607 77.6386C147.541 77.7339 149.462 77.9469 150.005 78.0086C149.688 76.8874 149.938 75.4019 150.389 74.875C150.558 74.6664 150.793 74.51 151.061 74.4269C151.329 74.3438 151.618 74.3378 151.89 74.4097C152.055 74.4826 152.061 74.7517 152.073 75.3403C152.035 76.0168 152.137 76.6939 152.372 77.3359C152.86 78.3337 154.623 78.9447 154.641 78.9504C154.663 78.959 154.68 78.9746 154.69 78.9942C154.7 79.0137 154.702 79.036 154.696 79.0569L153.476 83.2836C153.469 83.3046 153.454 83.3226 153.433 83.334C153.385 83.3396 152.701 83.676 150.768 83.676ZM146.4 77.7732C146.217 77.7575 146.034 77.7917 145.872 77.8715C145.71 77.9512 145.578 78.073 145.491 78.2216C145.443 78.316 145.43 78.4225 145.456 78.5242C145.481 78.6259 145.543 78.7167 145.631 78.7822C145.643 78.7959 145.649 78.8126 145.649 78.8298C145.649 78.847 145.643 78.8638 145.631 78.8775C145.625 78.8937 145.614 78.9078 145.598 78.9179C145.583 78.9279 145.565 78.9334 145.546 78.9335C145.331 78.9364 145.125 79.0123 144.967 79.1466C144.914 79.2062 144.876 79.2758 144.856 79.3505C144.836 79.4251 144.834 79.5028 144.851 79.5782C144.948 80.2733 145.223 80.3013 145.668 80.3518C145.692 80.3545 145.714 80.3652 145.729 80.3817C145.745 80.3982 145.754 80.4195 145.753 80.4415C145.754 80.4628 145.745 80.4834 145.729 80.499C145.713 80.5147 145.691 80.5241 145.668 80.5256C145.668 80.5256 145.125 80.5928 145.143 81.0469C145.162 81.501 145.814 81.7196 145.821 81.7196C145.839 81.7271 145.854 81.7388 145.866 81.7536C145.878 81.7683 145.885 81.7855 145.888 81.8037C145.887 81.8224 145.881 81.8405 145.869 81.8556C145.857 81.8707 145.84 81.8819 145.821 81.8877C145.639 81.943 145.486 82.0591 145.394 82.2129C145.366 82.2801 145.354 82.3523 145.361 82.4241C145.367 82.4959 145.391 82.5655 145.43 82.6277C145.741 83.2275 146.961 83.2948 149.633 83.4517C152.073 83.5919 153.08 83.2443 153.293 83.1715L154.513 79.0569C154.147 78.9223 152.683 78.3281 152.219 77.3751C151.971 76.7125 151.863 76.0122 151.902 75.3122C151.924 75.0506 151.899 74.7875 151.829 74.533C151.594 74.4765 151.346 74.4858 151.117 74.5597C150.887 74.6336 150.687 74.7688 150.542 74.9479C150.109 75.4524 149.877 77.0164 150.225 78.0534C150.233 78.066 150.238 78.0806 150.238 78.0955C150.238 78.1104 150.233 78.1249 150.225 78.1375C150.214 78.1482 150.201 78.1563 150.186 78.1612C150.171 78.1661 150.155 78.1676 150.139 78.1655C150.139 78.1655 147.699 77.8909 146.607 77.7788L146.4 77.7732Z" fill="#D1D3D4"/>
<path d="M131.083 109.395L151.823 111.592C152.587 111.642 153.347 111.445 153.97 111.036C154.594 110.627 155.042 110.031 155.239 109.35L158.502 98.0322C158.611 97.7229 158.645 97.3957 158.602 97.0732C158.559 96.7507 158.44 96.4406 158.254 96.1644C158.068 95.8882 157.818 95.6526 157.523 95.4737C157.228 95.2948 156.894 95.177 156.544 95.1284L135.749 92.6956C134.965 92.6306 134.181 92.8246 133.538 93.2427C132.896 93.6608 132.436 94.2757 132.242 94.9771L129.052 106.514C128.947 106.826 128.919 107.156 128.968 107.48C129.018 107.804 129.143 108.115 129.337 108.389C129.531 108.664 129.787 108.896 130.089 109.07C130.39 109.244 130.73 109.355 131.083 109.395Z" fill="white"/>
<path d="M152.11 111.89H151.762L131.022 109.692C130.636 109.658 130.263 109.546 129.929 109.365C129.595 109.184 129.308 108.938 129.088 108.644C128.858 108.327 128.704 107.968 128.638 107.592C128.571 107.216 128.594 106.831 128.704 106.463L131.894 94.9266C132.115 94.1631 132.621 93.4952 133.323 93.0401C134.026 92.585 134.881 92.3718 135.737 92.4377L156.532 94.865C156.907 94.907 157.267 95.0224 157.589 95.2032C157.911 95.384 158.187 95.6261 158.399 95.9132C158.622 96.2383 158.769 96.6029 158.829 96.9835C158.889 97.3641 158.861 97.752 158.746 98.1219L155.483 109.44C155.274 110.123 154.835 110.728 154.229 111.168C153.623 111.608 152.881 111.86 152.11 111.89V111.89ZM131.113 109.12L151.853 111.318C152.545 111.357 153.231 111.176 153.793 110.804C154.356 110.432 154.761 109.893 154.94 109.277L158.179 97.9537C158.276 97.6619 158.302 97.3541 158.256 97.0519C158.209 96.7498 158.092 96.4606 157.911 96.2047C157.749 95.984 157.537 95.798 157.289 95.6596C157.042 95.5213 156.765 95.4338 156.477 95.4031L135.682 92.9702C134.972 92.9154 134.264 93.0937 133.683 93.4734C133.102 93.8531 132.687 94.4097 132.51 95.0444L129.32 106.581C129.232 106.871 129.212 107.176 129.263 107.473C129.313 107.771 129.432 108.056 129.613 108.307C129.784 108.534 130.007 108.724 130.266 108.865C130.525 109.005 130.814 109.092 131.113 109.12V109.12Z" fill="#231F20"/>
<path d="M137.805 101.939L145.125 107.411C145.267 107.493 145.429 107.544 145.597 107.557C145.765 107.57 145.934 107.546 146.089 107.487C146.245 107.427 146.383 107.334 146.491 107.216C146.599 107.097 146.675 106.956 146.711 106.805L149.267 97.836C149.318 97.6927 149.322 97.5387 149.279 97.3932C149.236 97.2477 149.147 97.1172 149.023 97.0179C148.899 96.9187 148.747 96.8551 148.584 96.8351C148.421 96.8151 148.256 96.8396 148.108 96.9055L138.214 100.42C138.053 100.471 137.909 100.557 137.795 100.672C137.68 100.787 137.599 100.926 137.559 101.077C137.518 101.229 137.519 101.387 137.562 101.537C137.605 101.688 137.689 101.826 137.805 101.939V101.939Z" fill="#D1D3D4"/>
<path d="M145.18 57.9457L167.091 60.0423C167.483 60.0534 167.867 59.9386 168.177 59.7176C168.486 59.4965 168.702 59.1831 168.787 58.8314L172.349 45.3777C172.406 45.2238 172.425 45.06 172.403 44.8987C172.382 44.7374 172.321 44.5825 172.225 44.4457C172.13 44.3089 172.002 44.1937 171.851 44.1085C171.701 44.0234 171.531 43.9705 171.355 43.9538L149.493 42.2721C149.116 42.2722 148.75 42.3899 148.455 42.6057C148.161 42.8216 147.954 43.1229 147.87 43.4605L144.271 56.5275C144.211 56.6752 144.188 56.8334 144.203 56.9906C144.218 57.1477 144.271 57.2997 144.358 57.4356C144.445 57.5715 144.564 57.6879 144.706 57.7761C144.848 57.8643 145.01 57.9223 145.18 57.9457V57.9457Z" fill="white"/>
<path d="M149.371 42.2665H149.45L171.312 43.9482C171.488 43.9649 171.658 44.0177 171.809 44.1029C171.959 44.1881 172.087 44.3033 172.183 44.4401C172.278 44.5769 172.339 44.7317 172.36 44.8931C172.382 45.0544 172.364 45.2181 172.307 45.3721L168.744 58.8258C168.662 59.1573 168.464 59.4551 168.181 59.6745C167.899 59.8938 167.546 60.0229 167.177 60.0422H167.049L145.18 57.9457C145.01 57.9223 144.848 57.8643 144.706 57.7761C144.564 57.6878 144.445 57.5715 144.358 57.4356C144.271 57.2997 144.218 57.1477 144.203 56.9905C144.188 56.8334 144.211 56.6752 144.271 56.5275L147.87 43.4605C147.953 43.1381 148.145 42.8482 148.419 42.6334C148.694 42.4186 149.036 42.29 149.395 42.2665H149.371ZM149.395 41.7059C148.9 41.7303 148.427 41.9005 148.046 42.1913C147.665 42.4821 147.396 42.878 147.278 43.3204L143.679 56.3873C143.604 56.6365 143.588 56.8975 143.633 57.1529C143.677 57.4082 143.78 57.6518 143.936 57.8672C144.07 58.0462 144.246 58.1958 144.45 58.3053C144.655 58.4148 144.883 58.4815 145.119 58.5007L167.024 60.5972C167.089 60.6026 167.154 60.6026 167.219 60.5972C167.726 60.5773 168.211 60.4054 168.601 60.1077C168.991 59.81 169.264 59.403 169.379 58.9491L172.941 45.4954C173.013 45.2456 173.025 44.9845 172.976 44.7301C172.928 44.4756 172.82 44.2338 172.661 44.0211C172.517 43.8349 172.33 43.6801 172.114 43.5677C171.898 43.4553 171.658 43.3881 171.41 43.3708L149.548 41.6891L149.395 41.7059Z" fill="#231F20"/>
<path d="M157.38 54.0946C157.332 54.095 157.284 54.0851 157.241 54.0656C157.197 54.0462 157.159 54.0177 157.13 53.9825L148.23 42.7206C148.184 42.6599 148.165 42.5851 148.177 42.5119C148.19 42.4387 148.233 42.3728 148.297 42.3282C148.33 42.3067 148.367 42.2913 148.406 42.2831C148.446 42.2748 148.486 42.2738 148.526 42.28C148.566 42.2863 148.604 42.2997 148.638 42.3195C148.672 42.3393 148.701 42.3651 148.724 42.3954L157.404 53.4275L171.977 44.1388C172.045 44.0974 172.127 44.0818 172.207 44.0955C172.287 44.1091 172.358 44.1508 172.404 44.2117C172.427 44.2422 172.444 44.2765 172.452 44.3128C172.461 44.3491 172.461 44.3866 172.454 44.4231C172.447 44.4596 172.431 44.4944 172.409 44.5255C172.387 44.5566 172.359 44.5833 172.325 44.6041L157.533 54.0441C157.487 54.073 157.435 54.0904 157.38 54.0946Z" fill="#D1D3D4"/>
<path d="M144.393 57.8C144.343 57.8005 144.293 57.7895 144.248 57.768C144.203 57.7465 144.165 57.7151 144.137 57.6766C144.092 57.614 144.077 57.5378 144.092 57.4644C144.108 57.391 144.155 57.3264 144.222 57.2842L155.032 50.8657C155.099 50.8251 155.181 50.8106 155.26 50.8253C155.338 50.84 155.408 50.8827 155.452 50.9442C155.497 51.0068 155.513 51.083 155.497 51.1564C155.481 51.2297 155.434 51.2944 155.367 51.3366L144.57 57.7551C144.518 57.7875 144.456 57.8032 144.393 57.8V57.8Z" fill="#D1D3D4"/>
<path d="M168.061 60.0535C168.015 60.0537 167.97 60.0442 167.929 60.0257C167.887 60.0072 167.851 59.9803 167.823 59.9469L160.65 51.7346C160.6 51.6765 160.577 51.6026 160.586 51.5291C160.595 51.4556 160.636 51.3884 160.698 51.3422C160.729 51.3188 160.765 51.3013 160.804 51.2909C160.842 51.2804 160.882 51.2772 160.922 51.2814C160.962 51.2856 161.001 51.2971 161.036 51.3152C161.07 51.3334 161.101 51.3578 161.125 51.387L168.299 59.5994C168.325 59.6275 168.344 59.6601 168.356 59.6952C168.368 59.7303 168.372 59.7673 168.368 59.8039C168.364 59.8405 168.352 59.876 168.333 59.9083C168.314 59.9405 168.288 59.9689 168.256 59.9918C168.2 60.0304 168.132 60.0519 168.061 60.0535V60.0535Z" fill="#D1D3D4"/>
<path d="M101.528 84.9541C103.022 82.2171 105.07 79.7667 107.561 77.7339C111.563 74.5555 113.96 72.2459 112.704 71.6181C111.447 70.9902 107.287 73.7034 107.287 73.7034L110.434 63.1086C110.434 63.1086 103.499 67.3073 101.528 70.8781C99.5581 74.449 95.6724 81.983 95.6724 81.983L101.528 84.9541Z" fill="#F7AF87"/>
<path d="M101.528 85.2344C101.477 85.2346 101.427 85.223 101.382 85.2007L95.526 82.2241C95.4583 82.1896 95.4075 82.1328 95.3837 82.0651C95.3599 81.9975 95.365 81.924 95.3979 81.8597C95.4345 81.7868 99.308 74.2864 101.26 70.7548C103.212 67.2232 109.977 63.0469 110.264 62.8731C110.315 62.8412 110.377 62.8247 110.439 62.8257C110.501 62.8267 110.562 62.8453 110.612 62.8789C110.663 62.9125 110.701 62.9595 110.721 63.0136C110.742 63.0677 110.744 63.1263 110.727 63.1815L107.799 73.0419C109.135 72.2347 111.752 70.7996 112.85 71.3602C112.985 71.4202 113.1 71.511 113.186 71.6239C113.271 71.7368 113.324 71.868 113.338 72.0049C113.454 72.9803 111.837 74.6956 107.763 77.9357C105.306 79.9434 103.285 82.361 101.809 85.0606C101.792 85.0961 101.766 85.1279 101.735 85.154C101.703 85.18 101.666 85.1998 101.626 85.2119C101.595 85.225 101.562 85.2326 101.528 85.2344ZM96.0689 81.8709L101.394 84.5729C102.903 81.9104 104.924 79.5211 107.36 77.5209C108.72 76.4446 112.85 73.154 112.734 72.0777C112.728 72.0309 112.708 71.9865 112.677 71.949C112.646 71.9115 112.605 71.8824 112.557 71.8647C111.801 71.4835 109.123 72.8457 107.464 73.9332C107.412 73.9651 107.351 73.9819 107.288 73.9814C107.226 73.9809 107.165 73.9632 107.114 73.9306C107.062 73.8979 107.023 73.8519 107.001 73.7984C106.978 73.7448 106.974 73.6864 106.988 73.6305L109.916 63.7757C108.135 64.9304 103.352 68.1986 101.803 71.007C100.04 74.1799 96.746 80.576 96.0689 81.8653V81.8709Z" fill="#231F20"/>
<path d="M143.759 43.5783L124.141 42.0031C124.061 41.9959 123.987 41.9604 123.934 41.9039C123.882 41.8474 123.855 41.7744 123.86 41.7003C123.864 41.6635 123.875 41.6276 123.893 41.5946C123.911 41.5617 123.936 41.5324 123.967 41.5084C123.997 41.4845 124.033 41.4663 124.071 41.455C124.109 41.4437 124.15 41.4394 124.19 41.4425L143.783 43.0177C143.864 43.0177 143.942 43.0472 143.999 43.0998C144.056 43.1523 144.088 43.2236 144.088 43.298C144.088 43.3723 144.056 43.4436 143.999 43.4962C143.942 43.5487 143.864 43.5783 143.783 43.5783H143.759Z" fill="#231F20"/>
<path d="M138.665 46.5269L122.86 45.2207C122.82 45.2179 122.781 45.2078 122.746 45.191C122.71 45.1741 122.679 45.1509 122.653 45.1227C122.628 45.0945 122.608 45.0618 122.597 45.0267C122.585 44.9915 122.581 44.9546 122.586 44.918C122.589 44.8812 122.6 44.8452 122.618 44.8123C122.636 44.7794 122.661 44.7501 122.692 44.7261C122.723 44.7021 122.758 44.684 122.796 44.6727C122.835 44.6613 122.875 44.6571 122.915 44.6602L138.72 45.9719C138.801 45.9756 138.877 46.0087 138.931 46.0639C138.986 46.1191 139.014 46.1919 139.01 46.2662C139.006 46.3405 138.97 46.4103 138.91 46.4603C138.85 46.5102 138.771 46.5362 138.69 46.5325L138.665 46.5269Z" fill="#231F20"/>
<path d="M95.8127 46.0167C95.8127 46.0167 99.9424 52.2727 98.9847 53.506C98.027 54.7392 95.038 53.7919 95.038 53.7919" fill="white"/>
<path d="M97.1974 54.4197C96.4301 54.4016 95.6697 54.2807 94.9404 54.0609C94.9003 54.0488 94.8633 54.0295 94.8313 54.0042C94.7994 53.9789 94.7732 53.9481 94.7542 53.9135C94.7352 53.8788 94.7238 53.8411 94.7207 53.8025C94.7176 53.7638 94.7228 53.725 94.736 53.6882C94.7492 53.6514 94.7702 53.6173 94.7978 53.5879C94.8253 53.5586 94.8589 53.5345 94.8965 53.5171C94.9342 53.4996 94.9752 53.4892 95.0173 53.4863C95.0594 53.4835 95.1016 53.4882 95.1417 53.5004C95.9103 53.7414 98.0575 54.1843 98.7346 53.3154C99.3446 52.5698 97.2218 48.6682 95.5504 46.1345C95.5293 46.1029 95.5153 46.0677 95.5092 46.0311C95.503 45.9945 95.5048 45.9572 95.5144 45.9212C95.5241 45.8852 95.5414 45.8514 95.5654 45.8216C95.5893 45.7918 95.6195 45.7667 95.6541 45.7477C95.7239 45.7101 95.807 45.6991 95.8856 45.7169C95.9641 45.7347 96.0321 45.7799 96.075 45.843C96.7826 46.9137 100.26 52.3232 99.2287 53.6405C98.9828 53.9104 98.6699 54.1221 98.3164 54.2577C97.9629 54.3933 97.5791 54.4488 97.1974 54.4197V54.4197Z" fill="#231F20"/>
<path d="M71.98 57.5253C68.93 57.5757 66.2765 56.5835 62.9642 54.7224C62.0248 54.2011 60.9512 53.3714 61.2501 52.4073C61.4182 52.1011 61.5452 51.7774 61.6283 51.4431C61.6283 50.8825 61.0183 50.5013 60.5242 50.165C59.704 49.5999 59.0747 48.8329 58.709 47.9528C58.3434 47.0727 58.2564 46.1155 58.458 45.1918C58.6597 44.2682 59.1418 43.4158 59.8485 42.7335C60.5553 42.0511 61.4579 41.5666 62.4518 41.336C61.5749 40.5337 60.9631 39.5197 60.6873 38.4112C60.4115 37.3028 60.4829 36.1452 60.8933 35.0724C61.3037 33.9997 62.0362 33.0557 63.0062 32.3497C63.9762 31.6437 65.1438 31.2046 66.3741 31.0831C65.5018 31.1672 67.3135 26.5985 67.5941 26.1725C68.6985 24.6027 70.3437 23.4185 72.2667 22.8091C73.5379 22.4152 74.8872 22.2804 76.2208 22.414C77.5544 22.5475 78.8403 22.9463 79.9893 23.5827C80.52 22.3494 82.0267 21.6599 83.4663 21.6038C84.9127 21.6307 86.3382 21.9263 87.657 22.4727C89.2613 23.0333 90.9998 23.7508 91.6952 25.1859C91.8033 25.4988 91.9683 25.7926 92.1832 26.0548C92.5352 26.3198 92.9552 26.4973 93.4032 26.5705C98.2344 27.9551 99.1982 34.6371 95.8798 37.4792C95.2698 37.9781 94.6598 37.7315 94.1718 38.3481C93.8546 38.7573 93.8119 39.8897 93.6411 40.411C93.2106 41.6767 92.6425 42.8993 91.9453 44.0603C90.4115 46.4944 88.5686 48.7525 86.4553 50.7872C83.8951 53.4296 80.6639 55.4497 77.0491 56.6676C75.4201 57.2004 73.7087 57.49 71.98 57.5253Z" fill="#DD6034"/>
<path d="M71.7482 57.8056C69.0093 57.8056 66.3986 56.9759 62.8179 54.9691C60.9391 53.9208 60.7744 52.9566 60.9879 52.3344C61.0375 52.1895 61.1008 52.0488 61.1769 51.914C61.2709 51.768 61.3312 51.6058 61.3538 51.4375C61.3538 51.0619 60.9268 50.7648 60.4998 50.4789L60.3779 50.3948C59.5386 49.8241 58.8848 49.0535 58.4871 48.1664C58.0894 47.2792 57.9628 46.3091 58.1209 45.3607C58.2791 44.4123 58.7161 43.5216 59.3848 42.7847C60.0534 42.0477 60.9283 41.4925 61.915 41.179C61.1227 40.3383 60.5866 39.3198 60.3613 38.227C60.1359 37.1342 60.2294 36.0061 60.6321 34.9572C61.0349 33.9084 61.7326 32.9762 62.6543 32.2554C63.5761 31.5346 64.689 31.0508 65.88 30.8533C65.7275 29.648 67.1794 26.2566 67.3502 26.0043C68.4904 24.3743 70.1942 23.1442 72.1874 22.512C73.4464 22.1207 74.7803 21.9754 76.1039 22.0854C77.4275 22.1955 78.7114 22.5584 79.8735 23.151C80.2561 22.5889 80.786 22.124 81.4148 21.7989C82.0436 21.4737 82.751 21.2987 83.4724 21.2899C84.9607 21.3115 86.4285 21.6129 87.7852 22.1756C89.4261 22.7362 91.2378 23.493 91.9881 25.0401L92.0978 25.27C92.1682 25.4731 92.2777 25.663 92.4211 25.8305C92.6757 26.0261 92.98 26.1591 93.3057 26.2173L93.5008 26.2678C95.6846 26.8956 97.3377 28.6726 97.9233 31.027C98.5333 33.5608 97.8379 36.1619 96.0933 37.653C95.8211 37.8698 95.4938 38.0202 95.1418 38.0903C94.8543 38.1275 94.5939 38.2663 94.4158 38.477C94.2397 38.8545 94.1325 39.256 94.0986 39.6655C94.0618 39.9318 94.0068 40.1958 93.934 40.4559C93.4901 41.7348 92.9056 42.9689 92.1894 44.1388C90.6312 46.5741 88.7659 48.8319 86.6323 50.8657C84.0393 53.5421 80.766 55.5874 77.104 56.819C75.4669 57.3778 73.7435 57.6938 71.9983 57.7551H71.7482V57.8056ZM66.4046 31.341C65.2328 31.4588 64.121 31.8787 63.1977 32.5522C62.2743 33.2257 61.5769 34.1253 61.186 35.1474C60.7951 36.1694 60.7265 37.2722 60.9883 38.3285C61.25 39.3848 61.8314 40.3516 62.6654 41.1173C62.704 41.1525 62.7317 41.1965 62.7457 41.2448C62.7596 41.2931 62.7593 41.3439 62.7446 41.392C62.7296 41.4394 62.7014 41.4823 62.6629 41.5167C62.6245 41.5511 62.577 41.5757 62.525 41.5882C61.5813 41.803 60.7234 42.2597 60.0513 42.9053C59.3791 43.5508 58.9205 44.3586 58.7287 45.2345C58.5369 46.1104 58.6199 47.0184 58.9681 47.8526C59.3162 48.6868 59.9151 49.4129 60.695 49.9463L60.817 50.0248C61.3172 50.3668 61.9455 50.7872 61.9211 51.4599C61.8967 51.7045 61.8156 51.9416 61.6832 52.155C61.6248 52.2621 61.5738 52.3726 61.5307 52.4857C61.2867 53.2761 62.2566 54.0105 63.1106 54.4926C66.6913 56.4938 69.2594 57.2954 71.9617 57.245C73.6428 57.1848 75.3025 56.8782 76.8783 56.3369C80.447 55.1402 83.6355 53.1464 86.1565 50.535C88.2626 48.5254 90.1051 46.2959 91.6465 43.8922C92.3389 42.7481 92.903 41.5422 93.33 40.2933C93.3931 40.0587 93.442 39.821 93.4765 39.5814C93.5127 39.0834 93.658 38.5972 93.9035 38.1519C94.1599 37.8354 94.5367 37.6192 94.9587 37.5465C95.2161 37.502 95.4561 37.3956 95.6541 37.2382C97.2401 35.8872 97.8868 33.4936 97.3073 31.156C96.7644 28.9641 95.3004 27.3777 93.2935 26.8059L93.1104 26.7499C92.6766 26.6659 92.2771 26.4717 91.9575 26.1893C91.7555 25.9745 91.602 25.7249 91.5061 25.455C91.5061 25.3877 91.4452 25.3148 91.4086 25.2476C90.7559 23.8966 89.0722 23.2127 87.5411 22.6801C86.2618 22.1457 84.8775 21.8558 83.4724 21.8281C82.2524 21.8785 80.7763 22.4559 80.2639 23.6331C80.2465 23.6709 80.2208 23.7049 80.1882 23.7329C80.1556 23.7609 80.1169 23.7823 80.0748 23.7957C79.9925 23.8256 79.9008 23.8256 79.8186 23.7957C78.7101 23.1775 77.4675 22.7903 76.1785 22.6615C74.8895 22.5327 73.5854 22.6654 72.3582 23.0501C70.4978 23.6384 68.9075 24.7858 67.8442 26.307C67.5697 26.7163 66.2826 30.1526 66.4473 30.7916C66.5071 30.806 66.5607 30.8368 66.601 30.8799C66.6413 30.9229 66.6664 30.9762 66.673 31.0327C66.6816 31.1062 66.6582 31.1799 66.608 31.2376C66.5577 31.2954 66.4846 31.3325 66.4046 31.341V31.341Z" fill="#231F20"/>
<path d="M95.16 37.625C95.3793 37.7363 95.5738 37.8847 95.7334 38.0622C96.4075 38.8614 96.8295 39.8155 96.9534 40.8202C97.3072 42.8775 96.8863 44.9685 96.7826 47.0314C96.5793 51.0862 96.2743 55.1316 95.8676 59.1677C95.6114 61.7296 88.3707 61.5278 87.1263 60.7149L87.84 70.9005L72.8584 65.0033L73.8344 56.634C73.8344 56.634 78.7571 56.8414 81.801 51.7065C82.6629 50.1544 83.2792 48.497 83.631 46.7847C83.9787 45.3272 84.729 43.2475 84.6863 41.7732C84.6339 41.1109 84.4756 40.4592 84.2166 39.8392C84.8282 40.1303 85.5386 40.1926 86.1991 40.013C86.4324 39.9 86.6355 39.7409 86.7938 39.547C86.952 39.3531 87.0614 39.1293 87.1141 38.8919C87.2097 38.4091 87.2262 37.916 87.1629 37.4288C87.4787 37.6058 87.8308 37.7211 88.1972 37.7675C88.5637 37.8139 88.9366 37.7903 89.2927 37.6982C89.6487 37.6061 89.9803 37.4476 90.2667 37.2324C90.5531 37.0173 90.7881 36.7502 90.9571 36.4478C91.1218 37.0868 91.9697 37.3054 92.6773 37.4063C93.6838 37.5409 94.4402 37.2662 95.16 37.625Z" fill="#F7AF87"/>
<path d="M87.8401 71.1808C87.7999 71.1892 87.7582 71.1892 87.7181 71.1808L72.7365 65.2836C72.6769 65.2584 72.6273 65.2168 72.5946 65.1646C72.5618 65.1124 72.5474 65.0521 72.5535 64.9921L73.5295 56.6284C73.5386 56.5575 73.5762 56.4924 73.6348 56.4457C73.6935 56.3991 73.7691 56.3742 73.8467 56.3761C74.0358 56.3761 78.623 56.505 81.5327 51.5944C82.3736 50.0654 82.9753 48.4348 83.32 46.7511C83.4176 46.3531 83.5396 45.9102 83.6677 45.4506C84.0647 44.2654 84.3003 43.0396 84.3692 41.8012C84.3194 41.1669 84.1652 40.5432 83.9117 39.9514C83.8928 39.901 83.89 39.8468 83.9035 39.795C83.917 39.7433 83.9463 39.6961 83.9878 39.659C84.0294 39.622 84.0817 39.5966 84.1384 39.5858C84.1951 39.575 84.254 39.5793 84.3082 39.5982C84.8463 39.8581 85.4706 39.9241 86.0589 39.7832C86.2529 39.686 86.4205 39.5498 86.5494 39.3848C86.6782 39.2198 86.7649 39.0302 86.8031 38.8302C86.894 38.3771 86.9084 37.9139 86.8458 37.4568C86.8408 37.4041 86.8526 37.3511 86.8797 37.3044C86.9067 37.2576 86.9479 37.2191 86.9983 37.1933C87.047 37.1661 87.1029 37.1517 87.1599 37.1517C87.2169 37.1517 87.2728 37.1661 87.3216 37.1933C87.6029 37.3442 87.9147 37.4406 88.2381 37.4767C88.5614 37.5128 88.8893 37.4878 89.2017 37.4033C89.5141 37.3188 89.8045 37.1765 90.055 36.9852C90.3054 36.7939 90.5107 36.5576 90.6583 36.2908C90.6852 36.2385 90.7288 36.195 90.7833 36.166C90.8377 36.137 90.9005 36.1238 90.9633 36.1283C91.0269 36.1328 91.0873 36.1559 91.1356 36.1942C91.1839 36.2326 91.2175 36.2841 91.2317 36.3413C91.3293 36.7169 91.8051 36.9579 92.7018 37.0924C93.0596 37.1354 93.421 37.1485 93.7815 37.1317C94.3045 37.0775 94.8338 37.155 95.3126 37.3559C95.5635 37.4838 95.7868 37.6529 95.9714 37.8548C96.6893 38.6975 97.1315 39.7104 97.2463 40.7754C97.4442 42.2647 97.4442 43.7706 97.2463 45.26C97.1914 45.8542 97.1365 46.4484 97.106 47.037C96.9047 51.0787 96.5936 55.1653 96.191 59.1846C96.1422 59.6835 95.825 60.3842 94.6233 60.8663C92.6225 61.7128 89.0296 61.6343 87.4802 61.141L88.1573 70.8557C88.16 70.9034 88.1497 70.9509 88.1274 70.994C88.105 71.0371 88.0712 71.0743 88.0292 71.1023C87.9775 71.1472 87.9109 71.1749 87.8401 71.1808V71.1808ZM73.2001 64.8239L87.4924 70.4857L86.8153 60.7542C86.8131 60.7012 86.8267 60.6486 86.8547 60.6022C86.8826 60.5557 86.9238 60.5172 86.9739 60.4907C87.0226 60.4635 87.0785 60.4491 87.1355 60.4491C87.1925 60.4491 87.2485 60.4635 87.2972 60.4907C88.1146 61.0513 92.2138 61.2923 94.3488 60.3954C95.0991 60.0759 95.5078 59.6555 95.5688 59.1453C95.9714 55.1316 96.2825 51.0563 96.4838 47.0258C96.4838 46.426 96.5692 45.8205 96.6302 45.2207C96.8222 43.7761 96.8222 42.3153 96.6302 40.8707C96.5258 39.916 96.1328 39.0073 95.4956 38.2472C95.3584 38.1001 95.1955 37.9751 95.0137 37.8772C94.6294 37.7264 94.2083 37.6722 93.7937 37.7203C93.3965 37.74 92.9982 37.725 92.6042 37.6754C91.978 37.6225 91.3873 37.3845 90.9206 36.9971C90.5225 37.4616 89.9747 37.7984 89.3557 37.9595C88.7367 38.1206 88.0781 38.0977 87.4741 37.8941C87.494 38.2454 87.4653 38.5976 87.3887 38.9423C87.3277 39.2252 87.1986 39.4918 87.0106 39.7227C86.8227 39.9536 86.5809 40.1428 86.3029 40.2765C85.776 40.4589 85.1949 40.4589 84.6681 40.2765C84.8418 40.7547 84.9424 41.2528 84.967 41.7564C84.9054 43.0483 84.6635 44.3275 84.2472 45.5627C84.1191 46.0167 83.9971 46.454 83.9056 46.8408C83.5535 48.5763 82.9375 50.2577 82.0756 51.8355C79.4038 56.3201 75.2375 56.8806 74.1151 56.8806L73.2001 64.8239Z" fill="#231F20"/>
<path d="M87.23 47.9507C87.23 46.9361 86.6749 45.9999 86.1076 45.1479C85.7088 44.4492 85.1967 43.8103 84.5887 43.2531C84.2884 42.9705 83.9237 42.7525 83.5208 42.6149C83.1179 42.4773 82.6868 42.4234 82.2585 42.4571C81.8873 42.5306 81.5369 42.6748 81.2301 42.8804C80.9233 43.0861 80.6668 43.3487 80.4773 43.6511C80.1178 44.2654 79.9095 44.9447 79.8673 45.6412C79.7332 47.1598 80.0356 48.6841 80.7443 50.0615C81.4531 51.4388 82.5432 52.6209 83.9055 53.4892L83.6737 53.2369" fill="#F7AF87"/>
<path d="M83.8812 53.8143C83.8201 53.8133 83.7607 53.7957 83.7104 53.7638C82.3038 52.8625 81.1785 51.6384 80.4465 50.2134C79.7145 48.7883 79.4013 47.212 79.538 45.6412C79.5889 44.899 79.8203 44.1769 80.2151 43.5278C80.4245 43.1885 80.7111 42.8946 81.0554 42.6663C81.3996 42.438 81.7933 42.2806 82.2098 42.2049C82.6786 42.155 83.1536 42.2022 83.6001 42.3428C84.0465 42.4834 84.4531 42.714 84.7901 43.0177C85.4206 43.5919 85.9514 44.2517 86.3639 44.9741C86.8946 45.7981 87.5534 46.824 87.529 47.9507C87.5258 48.0246 87.4917 48.0944 87.4337 48.1457C87.3757 48.1969 87.2983 48.2255 87.2179 48.2254C87.1778 48.2247 87.1383 48.2167 87.1016 48.2019C87.0649 48.1872 87.0317 48.1659 87.004 48.1394C86.9762 48.1128 86.9544 48.0815 86.9398 48.0472C86.9253 48.0129 86.9182 47.9763 86.919 47.9395C86.919 46.9697 86.309 46.0223 85.8393 45.26C85.4553 44.5873 84.9639 43.9714 84.3814 43.4325C84.1088 43.1842 83.7799 42.9941 83.4183 42.8759C83.0567 42.7577 82.6711 42.7142 82.2891 42.7486C81.9599 42.8143 81.6496 42.9431 81.3784 43.1266C81.1071 43.3102 80.8812 43.5443 80.7153 43.8137C80.3608 44.3875 80.1523 45.0276 80.1053 45.686C79.988 47.0687 80.2427 48.4567 80.8469 49.7275C81.4512 50.9984 82.3864 52.1131 83.5701 52.9734C83.6199 52.9678 83.6705 52.9736 83.7173 52.9902C83.7641 53.0068 83.8057 53.0338 83.8385 53.0687L84.0703 53.321C84.1192 53.3721 84.1461 53.4379 84.1461 53.506C84.1461 53.5741 84.1192 53.6398 84.0703 53.691C84.0264 53.7525 83.9589 53.7966 83.8812 53.8143Z" fill="black"/>
<path d="M69.6681 67.3969L71.1565 62.9684L90.5545 64.6894L91.6708 68.7591C91.6708 68.7591 81.5326 73.1877 69.6681 67.3969Z" fill="white"/>
<path d="M82.3866 70.6371C77.9015 70.6272 73.4884 69.5989 69.54 67.6436C69.4776 67.6127 69.4288 67.5628 69.4021 67.5024C69.3754 67.4421 69.3724 67.375 69.3936 67.3129L70.8759 62.8844C70.8966 62.8233 70.9392 62.7706 70.9969 62.7349C71.0546 62.6992 71.1239 62.6827 71.1931 62.6881L90.5972 64.4147C90.6598 64.4197 90.7191 64.4423 90.7671 64.4794C90.8152 64.5165 90.8496 64.5664 90.8656 64.6221L91.9758 68.6919C91.9937 68.7544 91.987 68.8208 91.9569 68.8792C91.9267 68.9377 91.8751 68.9845 91.8111 69.0114C88.8194 70.1265 85.6148 70.6792 82.3866 70.6371V70.6371ZM70.0341 67.2736C73.274 68.8718 76.847 69.8178 80.5156 70.0488C84.1841 70.2798 87.8641 69.7905 91.3109 68.6134L90.3105 64.9697L71.37 63.288L70.0341 67.2736Z" fill="#231F20"/>
<path d="M94.6725 45.0262C95.0161 45.0213 95.2835 44.3673 95.2698 43.5655C95.2561 42.7638 94.9664 42.1179 94.6229 42.1228C94.2793 42.1278 94.0118 42.7818 94.0255 43.5835C94.0393 44.3853 94.3289 45.0312 94.6725 45.0262Z" fill="#231F20"/>
<path d="M62.22 140.557C62.22 140.557 52.9175 83.5134 61.0732 72.9522C65.6604 67.0102 73.0536 66.7859 79.8185 67.0774C85.0706 67.2904 89.7249 66.9261 93.7814 69.8803C103.047 76.6912 116.583 137.255 116.583 137.255C116.583 137.255 96.5813 150.087 62.22 140.557Z" fill="#68E1FD"/>
<path d="M124.101 63.0688L126.391 62.3779L129.198 70.2336C129.292 70.4963 129.268 70.7826 129.132 71.0294C128.997 71.2762 128.76 71.4633 128.474 71.5495L128.341 71.5898C128.199 71.6325 128.05 71.6492 127.901 71.6389C127.752 71.6285 127.608 71.5914 127.475 71.5297C127.342 71.4679 127.223 71.3826 127.126 71.2788C127.029 71.175 126.955 71.0546 126.909 70.9245L124.101 63.0688V63.0688Z" fill="white"/>
<path d="M127.99 71.9152C127.686 71.9158 127.389 71.8277 127.142 71.6636C126.896 71.4994 126.712 71.2676 126.618 71.0014L123.812 63.1534C123.787 63.0828 123.793 63.0059 123.83 62.9397C123.866 62.8735 123.93 62.8233 124.007 62.8003L126.27 62.0771C126.344 62.0491 126.428 62.0491 126.502 62.0771C126.574 62.111 126.628 62.1693 126.654 62.2397L129.46 70.0877C129.52 70.2523 129.544 70.4263 129.531 70.5995C129.517 70.7727 129.466 70.9417 129.381 71.0967C129.208 71.4097 128.908 71.6473 128.545 71.7582L128.411 71.7974C128.278 71.8565 128.136 71.8962 127.99 71.9152V71.9152ZM124.483 63.2375L127.197 70.8276C127.267 71.0195 127.416 71.1784 127.613 71.2697C127.809 71.3611 128.037 71.3774 128.246 71.3153L128.381 71.2761C128.588 71.2093 128.76 71.0732 128.863 70.8949C128.955 70.7202 128.97 70.5192 128.905 70.3343L126.197 62.7442L124.483 63.2375Z" fill="#231F20"/>
<path d="M124.586 55.1428L120.888 56.2587L123.634 63.944L127.332 62.8281L124.586 55.1428Z" fill="white"/>
<path d="M123.635 64.2129C123.588 64.2214 123.541 64.2214 123.495 64.2129C123.423 64.179 123.368 64.1207 123.342 64.0503L120.597 56.3649C120.572 56.2943 120.578 56.2174 120.615 56.1512C120.652 56.085 120.715 56.0348 120.792 56.0117L124.489 54.8906C124.525 54.8754 124.565 54.8676 124.605 54.8676C124.645 54.8676 124.684 54.8754 124.721 54.8906C124.757 54.9066 124.789 54.9293 124.815 54.9573C124.842 54.9853 124.861 55.0179 124.873 55.0532L127.618 62.7386C127.649 62.8068 127.649 62.8834 127.618 62.9516C127.581 63.0177 127.518 63.0679 127.441 63.0918L123.745 64.2129H123.635ZM121.274 56.4266L123.83 63.5795L126.947 62.6377L124.385 55.4848L121.274 56.4266Z" fill="#231F20"/>
<path d="M127.767 68.7814L126.678 69.1081C125.958 69.324 125.565 70.0356 125.8 70.6973L129.693 81.6624C129.928 82.3241 130.702 82.6856 131.423 82.4696L132.512 82.1429C133.232 81.927 133.625 81.2155 133.39 80.5537L129.497 69.5886C129.262 68.9269 128.488 68.5655 127.767 68.7814Z" fill="white"/>
<path d="M131.187 82.5716C130.834 82.5705 130.491 82.4677 130.205 82.2776C129.919 82.0875 129.706 81.8197 129.595 81.5121L125.66 70.5474C125.521 70.1586 125.555 69.735 125.755 69.3694C125.955 69.0038 126.305 68.7259 126.728 68.5966L127.813 68.2714C128.236 68.1439 128.696 68.1756 129.093 68.3595C129.489 68.5434 129.791 68.8646 129.93 69.2524L133.852 80.2228C133.991 80.6109 133.957 81.0337 133.757 81.3984C133.556 81.7631 133.207 82.0399 132.785 82.168L131.693 82.4931C131.53 82.545 131.359 82.5715 131.187 82.5716V82.5716ZM128.356 68.7535C128.242 68.7539 128.129 68.7709 128.021 68.804L126.935 69.1291C126.666 69.211 126.444 69.3875 126.317 69.6198C126.191 69.8521 126.169 70.1212 126.258 70.368L130.174 81.3384C130.266 81.583 130.458 81.7844 130.711 81.8989C130.835 81.9578 130.971 81.993 131.11 82.0027C131.25 82.0123 131.39 81.9961 131.522 81.955L132.608 81.6299C132.74 81.5885 132.862 81.5236 132.966 81.439C133.071 81.3543 133.156 81.2516 133.218 81.1366C133.282 81.0224 133.32 80.8976 133.331 80.7695C133.341 80.6414 133.324 80.5127 133.279 80.391L129.357 69.4262C129.287 69.2324 129.153 69.0633 128.974 68.9428C128.794 68.8222 128.578 68.756 128.356 68.7535V68.7535Z" fill="#231F20"/>
<path d="M122.031 63.2207C127.734 63.2207 132.358 58.9717 132.358 53.7302C132.358 48.4888 127.734 44.2397 122.031 44.2397C116.327 44.2397 111.703 48.4888 111.703 53.7302C111.703 58.9717 116.327 63.2207 122.031 63.2207Z" fill="white"/>
<path d="M122.043 63.501C119.368 63.5035 116.791 62.5797 114.825 60.9137C112.858 59.2477 111.648 56.9619 111.434 54.512C111.22 52.0621 112.018 49.628 113.67 47.6951C115.322 45.7622 117.706 44.4725 120.347 44.0829C122.987 43.6934 125.691 44.2327 127.918 45.5934C130.145 46.9541 131.733 49.0362 132.364 51.4245C132.995 53.8129 132.623 56.3321 131.323 58.48C130.023 60.6278 127.89 62.2465 125.349 63.0133C124.282 63.3349 123.166 63.4995 122.043 63.501V63.501ZM122.043 44.52C120.984 44.5192 119.931 44.6744 118.926 44.9797C116.53 45.7024 114.52 47.2282 113.294 49.2528C112.068 51.2773 111.718 53.652 112.313 55.9033C112.908 58.1546 114.404 60.1173 116.503 61.4C118.603 62.6826 121.151 63.1911 123.64 62.8241C126.129 62.457 128.377 61.2413 129.934 59.4194C131.491 57.5975 132.244 55.3032 132.043 52.9938C131.841 50.6845 130.7 48.5298 128.846 46.9593C126.993 45.3888 124.564 44.5178 122.043 44.52V44.52Z" fill="#231F20"/>
<path d="M122.031 61.4381C126.663 61.4381 130.418 57.9871 130.418 53.7302C130.418 49.4733 126.663 46.0223 122.031 46.0223C117.398 46.0223 113.643 49.4733 113.643 53.7302C113.643 57.9871 117.398 61.4381 122.031 61.4381Z" fill="white"/>
<path d="M122.037 61.7184C120.435 61.7191 118.863 61.313 117.497 60.5449C116.13 59.7768 115.021 58.6765 114.292 57.3656C113.563 56.0547 113.242 54.5841 113.365 53.1163C113.488 51.6484 114.051 50.2404 114.99 49.0477C115.929 47.8549 117.208 46.9239 118.687 46.3573C120.165 45.7907 121.786 45.6107 123.369 45.8371C124.952 46.0634 126.436 46.6874 127.657 47.6401C128.878 48.5928 129.79 49.8371 130.29 51.2357V51.2357C130.719 52.4351 130.832 53.7109 130.621 54.9585C130.41 56.2061 129.88 57.3898 129.075 58.4127C128.269 59.4357 127.211 60.2686 125.988 60.8432C124.765 61.4178 123.41 61.7177 122.037 61.7184V61.7184ZM122.037 46.297C120.327 46.2938 118.661 46.7883 117.277 47.7094C115.892 48.6305 114.861 49.931 114.331 51.4242C113.8 52.9174 113.798 54.5265 114.325 56.0208C114.852 57.515 115.88 58.8176 117.262 59.7415C118.645 60.6654 120.31 61.1631 122.019 61.1634C123.728 61.1636 125.393 60.6663 126.776 59.7428C128.159 58.8192 129.187 57.517 129.714 56.0229C130.242 54.5288 130.24 52.9196 129.71 51.4263V51.4263C129.179 49.9325 128.147 48.6316 126.762 47.7101C125.377 46.7886 123.71 46.294 122 46.297H122.037Z" fill="#231F20"/>
<path d="M120.603 86.1032L121.012 83.3004C121.012 83.1827 121.219 74.533 122.031 73.8659C122.842 73.1989 133.37 66.1805 134.109 67.1391C134.847 68.0977 133.37 69.9027 133.37 69.9027C133.37 69.9027 135.841 69.6729 135.591 71.0238C135.341 72.3748 133.865 73.7482 133.865 73.7482C133.865 73.7482 135.377 72.728 135.609 74.2023C135.675 74.6295 135.616 75.0652 135.44 75.4649C135.263 75.8647 134.974 76.2143 134.603 76.4782C134.603 76.4782 136.829 75.5701 136.335 77.2686C135.841 78.9672 130.424 83.2892 130.424 83.2892L129.771 86.9889L120.603 86.1032Z" fill="#F7AF87"/>
<path d="M129.771 87.3029H129.741L120.591 86.4059H120.536C120.286 86.3387 120.286 86.3387 120.658 83.8105L120.731 83.3116C120.731 83.2611 120.89 74.4994 121.854 73.6978C122.464 73.1821 131.937 66.8027 133.901 66.8027H133.98C134.059 66.8077 134.136 66.8283 134.206 66.8632C134.275 66.898 134.336 66.9462 134.383 67.0046C134.993 67.795 134.383 68.9778 133.974 69.6336C134.58 69.6143 135.173 69.7998 135.64 70.155C135.762 70.2836 135.852 70.4364 135.9 70.6015C135.949 70.7667 135.956 70.94 135.92 71.1079C135.738 71.8579 135.375 72.5608 134.859 73.1652C135.001 73.1626 135.141 73.1854 135.274 73.2325C135.469 73.3242 135.634 73.4627 135.751 73.6334C135.868 73.8041 135.933 74.0006 135.939 74.2023C136.042 74.827 135.899 75.4652 135.536 76.0017C135.851 75.9569 136.173 76.0273 136.433 76.1979C136.587 76.3557 136.69 76.5507 136.729 76.7601C136.768 76.9695 136.741 77.1847 136.652 77.3807C136.17 79.0625 131.449 82.8968 130.729 83.4742L130.119 87.073C130.104 87.145 130.06 87.2089 129.995 87.2517C129.93 87.2944 129.85 87.3128 129.771 87.3029V87.3029ZM120.945 85.879L129.521 86.7143L130.131 83.278C130.14 83.2127 130.175 83.1527 130.229 83.1098C131.717 81.927 135.658 78.5635 136.048 77.235C136.134 76.9267 136.128 76.7024 136.048 76.6184C135.835 76.4558 135.164 76.6184 134.761 76.7641C134.692 76.7941 134.613 76.7986 134.541 76.7767C134.468 76.7548 134.407 76.7082 134.371 76.6464C134.332 76.5866 134.319 76.5152 134.336 76.4472C134.354 76.3792 134.399 76.32 134.462 76.282C134.787 76.049 135.04 75.7412 135.194 75.3899C135.348 75.0385 135.399 74.6559 135.341 74.2808C135.304 74.0734 135.231 73.8211 135.042 73.7482C134.743 73.6305 134.231 73.9052 134.072 74.0117C134.01 74.0525 133.934 74.0705 133.858 74.0622C133.782 74.0539 133.713 74.0199 133.663 73.9669C133.612 73.9144 133.584 73.8466 133.584 73.7763C133.584 73.7059 133.612 73.6381 133.663 73.5857C133.663 73.5857 135.085 72.2683 135.31 71.0126C135.334 70.9302 135.336 70.8434 135.315 70.7603C135.293 70.6771 135.25 70.6001 135.188 70.5362C134.81 70.1662 133.779 70.1718 133.419 70.1998C133.36 70.2052 133.3 70.1948 133.247 70.17C133.194 70.1451 133.15 70.1068 133.12 70.0597C133.087 70.015 133.07 69.9623 133.07 69.9083C133.07 69.8543 133.087 69.8016 133.12 69.757C133.492 69.2973 134.34 67.9631 133.858 67.3241C132.821 67.0382 123.293 73.2269 122.232 74.107C121.622 74.6676 121.311 81.9158 121.311 83.334C121.311 83.334 121.311 83.5582 121.231 83.8946C121.158 84.3935 121.012 85.3801 120.945 85.8566V85.879Z" fill="#231F20"/>
<path d="M93.7692 69.8803C93.7692 69.8803 99.6984 73.1764 104.139 80.7273C108.58 88.2783 115.18 106.951 115.18 106.951L118.981 83.1658L131.943 85.851C131.943 85.851 133.053 128.454 121.573 133.247C110.093 138.04 80.7457 108.38 80.7457 108.38L93.7692 69.8803Z" fill="#68E1FD"/>
<path d="M117.834 134.01H117.748C117.687 134.01 111.288 132.233 103.877 125.926C97.0571 120.119 87.9376 109.154 83.2284 89.8815C83.2196 89.8447 83.2187 89.8066 83.2259 89.7695C83.2331 89.7324 83.2482 89.697 83.2703 89.6652C83.2923 89.6335 83.321 89.606 83.3547 89.5845C83.3883 89.5629 83.4262 89.5476 83.4663 89.5395C83.5063 89.5314 83.5477 89.5307 83.5881 89.5373C83.6285 89.5439 83.667 89.5577 83.7016 89.578C83.7361 89.5983 83.766 89.6247 83.7895 89.6556C83.8129 89.6865 83.8296 89.7214 83.8384 89.7582C92.7749 126.347 117.681 133.404 117.931 133.483C118.012 133.493 118.085 133.533 118.134 133.593C118.184 133.653 118.205 133.728 118.194 133.802C118.182 133.877 118.139 133.944 118.074 133.989C118.009 134.034 117.927 134.054 117.846 134.043L117.834 134.01Z" fill="#231F20"/>
<path d="M121.195 57.3123C121.396 57.1721 121.591 57.0264 121.805 56.8918L123.482 55.7707C123.854 55.5184 124.22 55.2718 124.568 54.9859C124.875 54.7417 125.141 54.4563 125.355 54.1394C125.486 53.9233 125.588 53.6937 125.66 53.4555C125.728 53.2488 125.775 53.0367 125.8 52.8221C125.856 52.4851 125.784 52.1408 125.596 51.8469C125.409 51.5529 125.117 51.3272 124.769 51.2076C124.397 51.0822 123.995 51.0524 123.606 51.1216C123.217 51.1907 122.856 51.3562 122.561 51.6C122.404 51.7204 122.261 51.8557 122.134 52.0037V52.0037V51.9644C121.969 51.6352 121.699 51.3597 121.359 51.174C121.047 51.0095 120.688 50.9334 120.329 50.9554C119.88 50.9733 119.447 51.1157 119.088 51.3639C118.728 51.612 118.459 51.9542 118.316 52.3456C118.247 52.5496 118.204 52.7603 118.187 52.9734C118.16 53.1988 118.16 53.4263 118.187 53.6517C118.241 53.983 118.374 54.299 118.578 54.5767C118.786 54.8605 119.02 55.1269 119.279 55.3727C119.664 55.7427 120.06 56.1126 120.444 56.4938C120.713 56.7517 120.969 57.0152 121.225 57.2786L121.195 57.3123Z" fill="#68E1FD"/>
<path d="M94.9953 56.5611L91.6708 54.7897C91.6708 54.7897 90.6582 58.4614 92.4638 59.4088C94.2694 60.3562 94.9953 56.5611 94.9953 56.5611Z" fill="white"/>
<path d="M93.0251 59.8348C92.7729 59.8312 92.5264 59.7653 92.3114 59.6443C90.3289 58.6072 91.3292 54.8738 91.3719 54.7168C91.3842 54.675 91.4064 54.6361 91.437 54.6032C91.4676 54.5702 91.5058 54.5439 91.5489 54.5262C91.5916 54.5069 91.6385 54.4969 91.6861 54.4969C91.7337 54.4969 91.7806 54.5069 91.8234 54.5262L95.1601 56.3201C95.2134 56.3496 95.2559 56.3932 95.282 56.4451C95.3081 56.4971 95.3166 56.5551 95.3065 56.6116C95.2516 56.875 94.7697 59.2014 93.5497 59.7283C93.3856 59.7992 93.2064 59.8356 93.0251 59.8348ZM91.8783 55.2213C91.6343 56.3425 91.4452 58.5455 92.6164 59.1453C92.7136 59.2067 92.8264 59.244 92.9439 59.2538C93.0614 59.2637 93.1796 59.2456 93.2873 59.2014C94.0132 58.8875 94.5074 57.4244 94.6538 56.69L91.8783 55.2213Z" fill="#231F20"/>
<path d="M87.1202 60.7149C87.1202 60.7149 82.2829 59.5265 80.6725 58.1027C82.5892 60.1734 84.7939 62.0035 87.23 63.5458L87.1202 60.7149Z" fill="#231F20"/>
<path d="M87.2301 63.8261C87.1712 63.8286 87.1132 63.8128 87.0654 63.7813C84.5967 62.2235 82.3612 60.3747 80.4164 58.2821C80.3677 58.2269 80.3436 58.1568 80.349 58.086C80.3544 58.0152 80.3888 57.9488 80.4454 57.9004C80.5019 57.852 80.5763 57.8252 80.6536 57.8252C80.7309 57.8253 80.8052 57.8524 80.8617 57.9009C82.3989 59.2575 87.1325 60.4347 87.1813 60.4459C87.2443 60.4605 87.3004 60.4935 87.3411 60.5401C87.3818 60.5866 87.405 60.644 87.407 60.7037L87.5351 63.5066C87.5381 63.5583 87.5254 63.6098 87.4985 63.6553C87.4716 63.7009 87.4314 63.7386 87.3826 63.7645C87.3379 63.7961 87.2856 63.8172 87.2301 63.8261V63.8261ZM82.4111 59.4537C83.7818 60.7663 85.2851 61.9563 86.9007 63.0077L86.8031 60.928C85.3055 60.5423 83.8431 60.0494 82.4294 59.4537H82.4111Z" fill="#231F20"/>
</svg>
